<svg version="1.2" xmlns="http://www.w3.org/2000/svg" viewBox="0 0 48 59" width="48" height="59">
	<title>logo-svg</title>
	<style>
		.s0 { fill: #000000 } 
		.s1 { fill: #a88944 } 
	</style>
	<path id="Layer" fill-rule="evenodd" class="s0" d="m0.1 50.1h47.9v0.9h-47.9zm0-21.2h47.9v0.9h-47.9z"/>
	<path id="Layer" fill-rule="evenodd" class="s0" d="m0.1 58.1h47.9v0.8h-47.9z"/>
	<path id="Layer" fill-rule="evenodd" class="s0" d="m44.8 35.4c2.3 0.1 3.2 1.8 3.2 3.4 0 0.1-0.1 0.2-0.4 0.2h-4.7c0.1 2.5 2.1 2.9 3 2.7q0.3 0 0.6-0.2 0.2-0.1 0.3-0.1c0.1-0.1 0.2-0.1 0.3 0q0.1 0.1 0.1 0.2 0 0.1-0.1 0.2 0 0.1-0.1 0.2c-0.7 0.4-1.4 0.6-2.1 0.5-1.9-0.1-3.5-1.4-3.5-3.5 0-2.1 1.6-3.7 3.4-3.6zm1.2 3c0.2 0 0.3 0 0.4-0.2q0-0.2 0-0.3 0-0.5-0.2-1c-0.1-0.3-0.3-0.6-0.6-0.8q-0.4-0.2-0.8-0.2-0.4 0-0.7 0.1c-0.6 0.2-1 0.8-1.1 2.2v0.1zm-40.5-6.7c1 0.2 1.9 0.7 2.7 1.5 1.3 1.4 1.5 3.8-0.2 5.1q-1 0.7-2.2 0.9-1.5 0.2-3 0.1h-0.1c-0.1 0-0.1 0-0.1 0.2v1.9q0 0.2 0.1 0.3 0.2 0.2 0.3 0.3 0.2 0 0.2 0.1 0.3 0.1 0.3 0.2 0 0.1 0 0.1 0 0.1 0 0.1-0.1 0.1-0.1 0.1-0.1 0-0.2 0h-2.8c-0.3 0-0.4 0-0.4-0.2q0-0.2 0.3-0.3l0.2-0.1c0.1-0.1 0.1-0.1 0.2-0.2q0-0.2 0-0.3c0-0.2 0.1-1 0.1-1.5v-5.6c0-1.4 0.1-1.8-0.2-2-0.2-0.2-0.5-0.1-0.5-0.5 0.1-0.2 0.5-0.3 0.7-0.3q0.7 0 1.4 0 1.6-0.2 3.3 0.1zm-2.4 6.9q0.6 0.2 1.1 0.2c2.4-0.1 3-1.8 3-3.2 0-1.5-1.1-3.4-3.3-3.5-0.3 0-0.8 0-1 0.2q-0.1 0.1-0.2 0.3 0 0.1 0 0.2v5.1q0 0.3 0.1 0.5c0.1 0.1 0.2 0.2 0.3 0.2zm11.4-2.9c0.1 0 0.2 0 0.2 0.2 0.1 0.3-0.2 0.9-0.3 1.3-0.1 0.2-0.2 0.2-0.4 0.1-0.2-0.1-0.1-0.4-0.5-0.6 0 0-1.1-0.5-1.9 0.8q-0.3 0.7-0.2 1.5l0.1 2.4q0 0.2 0 0.3c0.1 0.2 0.4 0.3 0.5 0.4q0.1 0 0.1 0.1 0 0.1 0 0.1c0 0.2-0.2 0.3-0.3 0.3h-2.3q-0.2 0-0.3-0.1 0 0 0-0.1-0.1 0 0-0.1 0 0 0-0.1 0 0 0 0c0.2-0.1 0.4-0.2 0.6-0.3 0.1-0.3 0.1-0.7 0.1-1.3v-2.9c0-0.5 0-0.8-0.3-0.9q-0.1 0-0.2-0.1 0 0 0-0.1 0-0.1 0-0.1 0-0.1 0.1-0.2 0.3-0.2 0.7-0.4l0.5-0.3c0.4-0.2 0.6-0.1 0.6 0q0.1 0.2 0.1 0.5c0 0.3 0 0.6 0 0.6l0.3-0.3c1.2-0.9 2.1-0.9 2.6-0.8q0.1 0 0.2 0.1zm3.4-0.3c2.3 0.1 3.2 1.9 3.2 3.4 0 0.2-0.1 0.2-0.4 0.2h-4.7c0.1 2.6 2 2.9 3 2.8q0.3-0.1 0.6-0.2 0.2-0.1 0.3-0.2c0.1 0 0.2-0.1 0.3 0q0.1 0.1 0.1 0.2 0 0.2-0.1 0.3-0.1 0.1-0.2 0.1c-0.6 0.4-1.3 0.6-2 0.5-1.9 0-3.6-1.4-3.6-3.5 0-2 1.7-3.6 3.5-3.5zm1.2 2.9c0.1 0 0.3 0.1 0.4-0.2q0-0.1 0-0.2 0-0.6-0.2-1.1c-0.1-0.3-0.3-0.6-0.7-0.8q-0.3-0.1-0.7-0.1-0.4 0-0.7 0.1c-0.6 0.2-1 0.8-1.1 2.2v0.1zm7.3 0.1q0.4 0.1 0.8 0.5c0.3 0.3 0.5 0.8 0.5 1.3 0.1 0.4-0.1 0.9-0.4 1.2-0.9 1.3-2.7 1-3.3 0.8-0.1 0-0.1 0-0.2-0.1q-0.2 0-0.3 0.1-0.1 0-0.1 0.1 0 0.1-0.1 0.1-0.1 0.1-0.1 0.1-0.1 0-0.2-0.1 0 0 0-0.1c0 0-1-1-1.4-1.5l-0.2-0.3c0 0-0.1-0.1-0.1-0.2q0.1-0.1 0.1-0.1 0.1-0.1 0.2-0.1 0.2 0.1 0.3 0.2c1.2 1.2 2.2 1.4 2.8 1.4 0.5 0.1 1.6-0.1 1.6-1.1 0.1-1.1-1.6-1.3-1.8-1.4-0.3-0.1-1.8-0.4-2.2-0.7q-0.4-0.3-0.6-0.8-0.1-0.5 0-1 0.2-0.4 0.4-0.6c0.3-0.3 0.7-0.6 1.2-0.7q0.7-0.1 1.4 0.2c0.2 0.1 0.6-0.2 0.6-0.2q0 0 0.1-0.1 0.1 0 0.2 0 0 0 0.1 0.1 0.1 0 0.1 0c0.4 0.7 0.6 1 0.7 1.2 0.1 0.1 0.4 0.5 0.1 0.6q0 0.1-0.1 0-0.1 0-0.2 0-0.1-0.1-0.3-0.3c-0.2-0.1-0.5-0.4-0.9-0.6-0.6-0.4-1.9-0.6-2.2 0.1-0.4 0.8 0.3 1.2 1.5 1.4q1 0.2 1.9 0.6zm4.6 3.1c0.1-0.1 0.2-0.2 0.3-0.1q0.1 0 0.2 0 0 0.1 0 0.2 0 0 0 0.1c-0.1 0.3-0.4 0.7-1.2 0.8q-0.5 0.1-0.9 0c-1-0.1-1.3-0.8-1.3-1.7v-4.1c0 0 0-0.2-0.1-0.2h-0.4q0 0 0 0-0.1-0.1-0.1-0.1 0 0 0-0.1 0 0 0-0.1 0.1-0.2 0.2-0.3c0.2-0.2 0.4-0.4 0.5-0.6q0.3-0.4 0.4-0.9c0.1-0.4 0.2-0.9 0.5-0.8 0.3 0 0.4 0.2 0.4 0.4 0 0.3-0.1 0.6 0 0.9v0.9h1.7v0.7h-1.7v4.5c0 0 0 0.6 0.5 0.7q0.5 0.1 1-0.2zm1.3-8c0-0.3 0.3-0.7 0.8-0.8q0.2-0.1 0.4 0 0.2 0.1 0.3 0.3 0.1 0.1 0.1 0.2 0 0.2-0.1 0.3-0.1 0.2-0.3 0.3c-0.4 0.3-1.2 0.4-1.2-0.3zm1.6 8.2c0.2 0.1 0.4 0.2 0.5 0.3q0.1 0.1 0.1 0.2 0 0.1 0 0.1-0.1 0.1-0.1 0.2-0.1 0-0.2 0h-2.2q0 0-0.1 0 0-0.1-0.1-0.1 0 0 0-0.1 0 0 0-0.1 0 0 0-0.1 0 0 0.1 0c0.1-0.2 0.4-0.2 0.5-0.5q0-0.2 0-0.5v-3.8q0-0.1 0-0.3-0.1-0.1-0.2-0.1c-0.1-0.1-0.4-0.2-0.3-0.5q0.1-0.1 0.2-0.2 0.6-0.3 1.2-0.6c0 0 0.4-0.3 0.4 0.3v5.2c0 0.2 0.1 0.5 0.2 0.6zm6.6-1.2c1.8 0.3 2 1.5 1.5 2.4-0.6 1.3-2.5 1.4-3.7 1.4-1.1 0-2.3-0.2-2.9-0.7-1.4-1 0.4-2.2 0.4-2.2q-0.4 0-0.5-0.3c-0.1-0.2-0.2-0.4-0.2-0.6q-0.1-0.3 0.1-0.6c0.1-0.4 0.4-0.7 0.7-0.9q-0.3-0.3-0.6-0.7c-0.5-1.1 0-2.2 0.9-2.8 0.7-0.3 1.4-0.5 2.1-0.5 0.1 0 0.2-0.2 0.2-0.2q0.1-0.4 0.4-0.7c0.5-0.8 1.3-0.8 1.6-0.6 0.4 0.3 0.3 1.1-0.3 1q-0.4 0-0.7 0c-0.4 0.1-0.4 0.6-0.4 0.6 0.4 0.1 0.9 0.3 1.2 0.7q0.5 0.5 0.6 1.2c0.1 0.5 0 1.1-0.3 1.6q-0.3 0.4-0.7 0.6c-0.3 0.2-0.7 0.3-1 0.4-0.7 0.1-1.4 0-2.1-0.1-0.5 0.3-0.5 0.6-0.2 0.7q0.3 0.1 0.6 0.1 0.1 0 1.2 0.1 1 0 2.1 0.1zm-1.8-4.8q-0.4-0.2-0.8-0.1-0.4 0-0.8 0.2c-0.3 0.3-0.7 0.8-0.7 1.7q0 0.3 0.1 0.6 0.2 0.3 0.4 0.5 0.2 0.3 0.5 0.4 0.3 0.1 0.6 0.1 0.5 0.1 0.8-0.1 0.4-0.3 0.6-0.7c0.1-0.2 0.2-0.5 0.2-0.8q0.1-0.5-0.1-0.9c-0.1-0.4-0.4-0.7-0.8-0.9zm-0.8 7.9q1.1 0.1 2.2-0.2 0.3-0.1 0.5-0.4 0.1-0.1 0.2-0.2 0-0.2 0-0.3 0-0.2-0.2-0.4-0.1-0.2-0.3-0.2-0.4-0.1-0.7-0.1c-0.8 0-2.8-0.1-2.9-0.1 0 0-1 1 0.3 1.6q0.4 0.2 0.9 0.3zm-7.1 0.3c0 0.1 0 0.2 0 0.3 0.1 0.6 0.3 1.9 0.4 2.8 0 1-0.8 1.6-2.1 1.6q-0.3 0-0.7-0.2-0.4-0.1-0.7-0.5-0.3-0.3-0.4-0.7 0-0.4 0-0.7c0-0.7 0.1-2.5 0.1-2.5 0-0.3 0-0.2-0.1-0.3q0-0.1 0-0.1 0-0.1 0.1-0.1 0.1 0 0.2 0h0.8q0.1 0 0.2 0 0 0.1 0 0.1 0.1 0.1 0 0.2 0 0 0 0-0.1 0.1-0.1 0.1-0.1 0-0.1 0.1 0 0 0 0.1l-0.2 2.8c0 0.4 0.1 1 1 1.2q0.5 0.1 1-0.2c0.1-0.1 0.3-0.2 0.4-0.4 0-0.2 0.1-0.4 0.1-0.5q-0.1-0.3-0.1-0.5c0-0.6-0.2-2.3-0.2-2.5q0-0.1-0.1-0.1 0-0.1-0.1-0.2c-0.1 0-0.2 0-0.2-0.1q0 0 0 0 0-0.1 0-0.1 0 0 0.1 0 0-0.1 0-0.1c0.3 0 0.6 0 0.8 0q0.1 0 0.1 0 0.1 0 0.1 0.1c0.1 0.1 0 0.1-0.1 0.2-0.1 0-0.2 0-0.2 0.2zm-8.8 3.9q0.1 0.1 0.2 0.1 0.1 0.1 0.1 0.1 0.1 0.1 0.1 0.1 0 0.1 0 0.1 0 0.1-0.1 0.2 0 0-0.1 0h-0.9c-0.3 0-0.5 0.1-0.6 0-0.1-0.1-0.1-0.4 0-0.4 0.1-0.1 0.1-0.3 0-0.4l-0.8-0.9h-1.1v1.2c0 0.1 0.1 0.1 0.2 0.2q0.1 0.1 0.1 0.1 0 0.1 0 0.1 0 0.1 0 0.1 0 0-0.1 0.1 0 0-0.1 0h-1.2q0 0-0.1 0 0 0-0.1-0.1 0 0 0-0.1 0 0 0-0.1c0-0.1 0.1-0.1 0.2-0.2 0.1 0 0.1-0.3 0.1-0.3v-3.4q0-0.1-0.1-0.2 0-0.2-0.1-0.2c-0.1-0.1-0.1-0.1-0.1-0.2 0-0.1 0-0.2 0.2-0.3q0.2 0 0.4 0c0.9-0.2 1.8-0.1 2.6 0.1 0.8 0.3 1.3 0.9 1.2 1.7 0 0.9-0.9 1.3-0.9 1.3q0.4 0.7 1 1.3zm-1.1-2.3c0.1-0.2 0.1-0.4 0.1-0.6q0-0.4-0.3-0.6c-0.3-0.5-1.2-0.7-1.7-0.6q-0.1 0-0.2 0 0 0.1-0.1 0.1 0 0.1 0 0.2 0 0 0 0.1v2c0 0.2 0 0.3 0.2 0.3 0.4 0.1 1.7 0.1 2-0.9zm-3.8 2.1c0 0.2 0.1 0.3 0.2 0.5q0 0 0.1 0.1 0 0.1-0.1 0.1 0 0.1 0 0.1-0.1 0.1-0.1 0.1-0.3 0-0.4 0-1.4 0.1-2.7-0.2c-1.4-0.3-2-2.2-1.2-3.7q0.5-0.7 1.2-1c0.5-0.2 1-0.3 1.5-0.1q0.3 0.1 0.6 0 0.1-0.1 0.2 0 0.1 0 0.2 0.1 0.1 0.3 0.2 0.6 0.1 0.1 0.1 0.3 0 0.2-0.1 0.2-0.2-0.1-0.3-0.2c-0.1-0.1-0.2-0.2-0.3-0.3q-0.3-0.2-0.6-0.3c-0.2-0.1-0.4-0.1-0.6-0.1q-0.4 0-0.7 0.2c-0.6 0.3-0.9 1.2-0.7 2.5 0.2 1.7 2 1.5 2.3 1.5q0.1 0 0.2-0.1 0.1 0 0.1-0.1 0-0.1 0-0.3c0.1-0.1 0-0.2 0-0.3v-0.4c0-0.4-0.1-0.4-0.1-0.4q-0.1-0.1-0.1-0.2-0.1 0-0.1 0 0-0.1 0-0.1 0-0.1 0-0.1 0.1-0.1 0.1-0.1h1.3c0.1 0.1 0 0.2-0.1 0.3q0 0.1-0.1 0.2 0 0.1 0 0.1v1.1zm7.4-4.3c0.6 0 1.1 0.1 1.5 0.4 0.5 0.2 0.8 0.6 1 1.1 0.2 0.5 0.3 1 0.2 1.5q-0.1 0.8-0.7 1.4c-0.3 0.4-0.8 0.6-1.3 0.7q-0.8 0.2-1.6-0.1c-0.4-0.2-0.8-0.5-1.1-1-0.3-0.4-0.5-0.9-0.5-1.4 0-0.7 0.3-1.4 0.7-1.8 0.5-0.5 1.2-0.8 1.8-0.8zm1.6 2.6c0-1.2-0.7-2.2-1.6-2.2-0.8 0-1.5 1-1.5 2.2 0 1.2 0.7 2.2 1.5 2.2 0.9 0 1.6-1 1.6-2.2zm8.1-2.4c0.5 0.1 0.9 0.3 1.2 0.7 0.6 0.6 0.7 1.7 0 2.3q-0.5 0.3-1.1 0.4-0.6 0.1-1.3 0h-0.1c0 0 0 0.1 0 0.2v0.8q0 0.1 0 0.1 0.1 0.1 0.2 0.2c0 0 0 0 0.1 0q0.1 0.1 0.1 0.1 0 0 0 0.1 0 0 0 0 0 0-0.2 0h-1.2c-0.1 0-0.2 0-0.2 0q0-0.1 0.2-0.2v-0.1c0.1 0 0.1 0 0.1-0.1q0 0 0-0.1c0-0.1 0.1-0.4 0.1-0.7v-2.5c0-0.6 0-0.8-0.1-0.9-0.1-0.1-0.2-0.1-0.2-0.2 0-0.1 0.2-0.1 0.3-0.2q0.3 0 0.6 0 0.8 0 1.5 0.1zm-1.1 3.1q0.3 0.1 0.6 0.1 0.2 0 0.5-0.1 0.2-0.1 0.5-0.3 0.2-0.2 0.2-0.5 0.1-0.2 0.1-0.5c0-0.4-0.1-0.8-0.4-1.1-0.3-0.3-0.7-0.5-1.1-0.5q-0.2 0-0.5 0.1 0 0 0 0.1-0.1 0-0.1 0.1v2.3q0 0.1 0.1 0.2 0.1 0.1 0.1 0.1zm-29.8-8.1z"/>
	<path id="Layer" fill-rule="evenodd" class="s0" d="m31.4 21.3c-0.1 2.5-0.8 4.9-2.2 7-1.4 2-3.3 3.6-5.7 4.6-2.3 1-4.8 1.2-7.2 0.7-2.5-0.5-4.7-1.7-6.5-3.4-1.8-1.8-3-4-3.4-6.5-0.5-2.4-0.3-4.9 0.7-7.3 0.9-2.3 2.5-4.2 4.6-5.6 2.1-1.4 4.5-2.1 7-2.1 1.7 0 3.3 0.3 4.8 0.9 1.6 0.7 3 1.6 4.2 2.8 1.1 1.1 2.1 2.5 2.7 4 0.6 1.6 1 3.2 1 4.9z"/>
	<path id="Layer" fill-rule="evenodd" class="s0" d="m18.2 7.3c0.2-0.1 0.7-0.7 0.7-0.7 0.2-0.1 0.6 0.4 0.4 0.7-0.1 0.1-0.8 0.8-0.8 0.8q0.4-0.4 0.9-0.8c0.1 0.1 0.2 0.1 0.3 0.3 0 0.1 0 0.2 0 0.3q-0.2 0.5-0.7 0.9c0.1 0 0.5-0.4 0.6-0.4 0 0 0.2 0.2 0.2 0.3 0 0.1 0 0.1 0 0.1q0 0 0.1 0c0.1 0 0.3 0.2 0.2 0.4v0.1c0-0.1 0.1-0.1 0.2 0q0 0.1 0.1 0.2c0 0-0.1 0.1-0.1 0.2 0.1-0.1 0.2 0.1 0.1 0.3q0 0.1-0.1 0.2 0.2-0.2 0.5-0.3 0.7-0.4 1.5-0.8 0.7-0.3 1.3-0.7c0.3-0.3 0.6-0.3 0.5 0-0.1 0.4-0.4 0.7-0.4 0.8 0.1 0.1 0.3-0.1 0.7-0.4q0.6-0.5 1.3-1c0.5-0.3 1.2-0.4 1.4-0.5q0.7-0.4 1.5-0.6c0.6-0.2 2.5-0.7 2.8-0.8 0.2-0.1 0.3-0.1 0.4 0 0.1 0.2 0 0.6-0.3 0.8-0.4 0.3-1 0.4-1.3 0.6 0.2-0.1 0.8-0.3 1.2-0.3q0 0 0 0 0.1 0 0.1 0 0 0 0.1 0.1 0 0 0 0c0 0.2-0.2 0.5-0.4 0.8-0.5 0.4-1.5 0.7-2.2 0.7 0.6 0 1.5-0.3 1.2 0.5-0.2 0.2-0.4 0.5-0.6 0.6q-0.3 0.1-0.6 0.1c-0.1 0.1-1.4 0.3-1.5 0.3 0 0 0.8-0.1 1.2-0.2q0.1 0 0.2 0 0.1 0.1 0.1 0.1c0.3 0.3 0.4 0.5-0.1 0.8q-0.4 0.2-0.8 0.2c-0.1 0-1.5 0.1-1.7 0.1 0 0 1.5-0.1 1.6 0q0.2 0 0.3 0.1c0.1 0.1 0.1 0.3-0.3 0.4q-0.4 0.1-0.9 0.1c-0.1 0.1-1.2 0-1.3 0 0 0.1 1.2 0.1 1.3 0.1 0.2 0 0.4 0 0.4 0.2 0 0.5-0.1 0.6-0.3 0.6q-0.1 0.1-0.2 0.1c-0.4-0.1-1.7-0.2-1.8-0.2 0.1 0 1.8 0.2 1.9 0.2 0.1 0.6-0.4 0.8-0.9 0.8 0 0-0.8-0.1-0.9-0.1 0 0 0.5 0.1 0.7 0.1 0.1 0.1 0.2 0.1 0.2 0.2q0 0 0 0.2 0 0.1-0.1 0.1 0 0.1-0.1 0.1-0.2 0-0.5 0.1c0.1 0 0.5-0.1 0.5 0 0.2 0.1 0.1 0.3-0.1 0.4q-0.1 0-0.2 0c0 0 0.2 0 0.3 0.2 0 0.2-0.2 0.3-0.3 0.3-0.1 0-0.3 0-0.4 0 0 0 0.3 0 0.4 0 0 0.1 0.1 0.1 0 0.2q0 0.1-0.1 0.1-0.2 0.1-0.5 0.1 0.2 0 0.5 0c0.1 0 0.4 0.2 0.2 0.3-0.1 0.3-0.6 0.2-0.6 0.2 0 0 0.9 0.4 0.8 0.5 0 0-0.2 0-1.1-0.1 0 0 0.7 0.4 0.6 0.5-0.1 0.1-0.4 0.1-0.7 0q-0.1 0-0.3-0.1 0.4 0.2 0.6 0.6c0.2 0.2 0.2 0.5-0.1 0.3-0.3-0.2-0.5-0.4-0.5-0.4 0 0 0.5 0.4 0.5 0.5 0 0.1-0.3 0.1-0.3 0.1q0.3 0 0.5 0c0.1 0.1 0.1 0.2 0.1 0.2-0.1 0.2-0.6 0.3-0.6 0.3 0 0 0.4 0 0.2 0.1q-0.1 0.2-0.3 0.2c0 0 0.5 0 0.6 0 0.1 0.1 0 0.4-0.4 0.5 0.4 0.2 0 0.2-0.3 0.3 0 0 0.3-0.1 0.3 0.1 0 0.3-0.3 0.2-0.3 0.2 0 0 0.3 0.1 0.3 0.3-0.1 0.2-0.7 0-0.7 0 0 0 0.7 0.3 0.8 0.5 0 0.1 0.1 0.3 0.3 0.3q0.5 0.2 0.8 0.6 0.6 0.5 1.3 0.8 1.1 0.5 2.1 1.2c0.4 0.3 0.6 0.5 0.4 0.5q-0.5 0-1 0 0.9 0.6 1.8 0.9 0.6 0.1 1.2 0.4c0.1 0.1 0.3 0.1 0.5 0.3q-0.1 0-0.2 0-0.1-0.1-0.1 0c0.1 0 0.1 0.1 0.1 0.1q-0.1 0-0.1 0-0.1-0.1-0.2-0.2l0.1 0.3c-0.1-0.1-0.1-0.1-0.2-0.3v0.2c-0.2-0.1-0.2-0.2-0.4-0.3-0.3 0-0.2 0-0.4 0-0.1 0 0.3 0.1 0.3 0.1-0.1 0.1 0 0.2-0.1 0.2-0.6-0.3-0.9-0.5-1.6-0.7q-0.3-0.2-0.6-0.4c-0.3-0.2-0.3 0.2-0.1 0.2 0 0 0.5 0.4 0.4 0.4q-0.3-0.1-0.5-0.1-0.3 0-0.6-0.1c-0.1-0.2-0.2-0.4-0.4-0.7q-0.3-0.4-0.6-0.7c-0.3-0.4-0.4-0.1-0.4-0.1 0 0 0.6 0.6 0.6 0.9 0.1 0.4 0.1 0.8 0 0.6 0-0.1-0.3-0.4-0.6-1-0.4-0.7-0.6-0.9-0.9-1.1-0.4-0.3-1-0.4-1.4-0.6-0.4-0.1-0.9-0.1-1.4-0.5q-0.6-0.4-0.6-0.4 0.1 0.2 0.1 0.5 0 0.2 0 0.4c0 0-0.2-0.2-0.2-0.3q-0.1-0.3-0.1-0.3c0 0.1-0.1 0.3-0.1 0.4q0 0.1 0.1 0.2c-0.1 0-0.1-0.1-0.2-0.1q-0.1-0.2-0.1-0.4c0 0 0 0.8-0.1 0.6q-0.1-0.2-0.2-0.4 0 0.3 0 0.5c0.1 0.1-0.2-0.3-0.2-0.3q0 0.1-0.1 0.3c0 0.1 0 0 0 0.2 0 0 0-0.1-0.1-0.2q-0.1-0.1-0.1-0.2c0 0-0.2 0.1-0.2 0.2q0.1 0.4 0 0.7-0.2 0.4-0.1 0.8c0.1 0.2 0.2 0.3 0.1 0.3q-0.1 0-0.1-0.1c-0.2 0-0.2 0-0.3-0.1q0.1 0.2 0.1 0.4c0.1 0.1 0.3 0.3 0.2 0.2-0.2 0-0.4 0.1-0.5-0.1q0 0.2 0.1 0.4 0 0.2 0 0.3-0.1 0-0.2-0.1-0.1-0.1-0.1-0.2-0.1 0.3 0 0.6c0 0.2 0.1 0.3 0 0.2-0.2 0-0.5 0-0.5-0.2q-0.1-0.2-0.2-0.4c0 0-0.1 0.4-0.2 0.6 0 0.2-0.2 0.1-0.4 0.3q-0.1 0.1-0.1 0.3c0 0.1 0.3 0.2 0.5 0.5q0.1 0.3 0.2 0.7c0.1 0.5-0.2 0.9-0.2 0.8 0-0.4-0.1-0.4-0.1-0.7v-0.1q-0.1 0-0.2 0-0.1 0-0.2-0.1-0.1 0-0.2-0.1 0-0.1 0-0.2-0.1-0.2-0.3-0.4-0.1 0.2-0.2 0.3-0.1 0.1-0.2 0.1c-0.4 0.1-0.6 0-0.8 0.2q-0.2 0.2-0.2 0.6-0.1-0.2-0.1-0.5 0-0.2 0.1-0.4 0.2-0.1 0.3-0.2 0.1-0.2 0.2-0.3 0.1 0 0.3-0.1c0.4 0 0.3-0.3 0.3-0.3-0.3 0-0.7 0-0.7-0.4q0-0.1-0.4 0.1c-0.2 0-0.2 0.4-0.2 0.4 0 0-0.2-0.5 0-0.6 0.3-0.3 0.5-0.3 0.7-0.2q0.2 0.1 0.4 0.3 0.2 0.1 0.4 0.1 0.1 0 0.3-0.1 0.3-0.2 0.5-0.5 0-0.2 0.1-0.3c0-0.4 0-0.8 0-1.1 0-0.4 0.3-1.1 0-1.4-0.3-0.2-0.4-0.3-0.5-0.2 0 0-0.4 0.2-0.4 0.4-0.1 0.2 0 0.2 0.2 0.3 0.1 0.1 0.1 0.2 0.3 0.3 0.1 0.1 0.3 0.1 0.3 0.5q0.1 0.2 0 0.5c-0.1 0.2-0.3 0.2-0.3 0.2q0-0.2 0-0.3 0.1-0.3 0-0.3c-0.4-0.2-0.1-0.4-0.6-0.6q0 0-0.1 0 0-0.1-0.1-0.1 0.1 0.1 0.1 0.3c0 0.1-0.1 0-0.1 0.1 0 0.3 0 0.2 0 0.4 0-0.1-0.1 0-0.1-0.3-0.1-0.2-0.1-0.1-0.2-0.2q-0.1-0.1 0-0.3-0.1 0.2-0.3 0.4c0 0-0.1 0-0.2 0.1-0.2 0.2-0.4 0.4-0.3 0.6 0 0-0.2-0.2-0.2-0.4 0.1-0.2 0.2-0.2 0.3-0.3q0-0.2 0.1-0.4c0.2-0.2 0.2-0.2 0.4-0.3l0.1-0.1c-0.1 0.1-0.3 0.1-0.4 0-0.2 0-0.2-0.2-0.3-0.2-0.3 0-0.4 0.3-0.2 0.5-0.4-0.2-0.3-0.8 0.2-0.8 0.2 0 0.2 0 0.4 0.1q0.2 0 0.4 0c0.2 0 0.7-0.2 0.5-0.3-0.2 0-0.3-0.2-0.6-0.4-0.2-0.3-0.1-0.3-0.4-0.6-0.3-0.3-0.4-0.3-0.4-0.3l0.2-0.5c0 0 0 0-0.1 0-0.1 0-0.3 0-0.3 0 0 0 0-0.1 0.1-0.2q0.1-0.1 0.2-0.2-0.3 0-0.5 0c0 0.1 0 0 0.1-0.2 0 0 0.1-0.1 0.3-0.2 0.3-0.1 0.7 0.4 0.9 0 0.1-0.2 0-0.1 0-0.1-0.4 0.1-0.6-0.2-1-0.2q0 0.1-0.1 0.2-0.1 0.1-0.2 0.2c-0.3 0.1-0.4 0.2-0.5 0.4q-0.1 0.4-0.2 0.8 0.1 0.3 0.3 0.5c0 0-0.6 0-0.9-0.3-0.2-0.2-0.3-0.5-0.3-0.8-0.1-0.3-0.1-0.3-0.1-0.3 0 0-0.3-0.1-0.2-0.7q0.1-0.7 0.5-1.3c0.4-0.5 0.8-0.9 1.3-1.1q0.6-0.3 1.1-0.6 0.2-0.1 0.3-0.3c-0.1-0.8-0.3-1.5-0.7-2.2-0.6-1-1.7-2.2-1.9-2.6-0.3-0.5-0.2-0.4-0.2-0.6q0-0.2 0-0.5 0.1 0.1 0.2 0.2c0.1 0.1 0.4 0.4 0.4 0.4l0.1-0.1c-0.3-0.2-0.4-0.5-0.6-0.8-0.2-0.4-0.2-1-0.1-1.5q0.1-0.7 0.2-1.5c0-0.4 0-0.7 0.1-0.7 0.1 0 0.3 0.1 0.4 0.4 0.1 0.2 0.1 0.4 0.1 0.3q0.1-0.5 0.1-1-0.2-0.6-0.2-1.2 0.1-0.3 0.3-0.6 0.1-0.9 0.4-1.9c0.2-0.5 0.6-1.3 0.6-1.7 0.1-0.3 0.2-0.3 0.2-0.3 0.1 0 0.3 0.1 0.3 0.3q0.2 0.3 0.2 0.7-0.1 0.4-0.3 0.8c0.1-0.3 0.3-0.5 0.6-0.6 0.1 0 0.2 0 0.3 0.3q0 0.4 0 0.8c-0.1 0.6-0.5 1.1-0.7 1.6 0-0.1 0.2-0.4 0.3-0.6q0.1-0.1 0.3-0.2 0.1 0 0.2 0 0.1 0 0.2 0.1 0.1 0.1 0.1 0.2 0.1 0.1 0.1 0.2c-0.1 0.5-0.8 1.8-0.8 1.8 0.1 0 0.5-0.8 0.6-1 0.1-0.1 0.1-0.1 0.2 0 0.2 0 0.5 0.1 0.4 0.5q-0.3 0.8-0.7 1.5 0.2-0.4 0.5-0.8 0.1 0 0.2 0 0.1 0 0.2 0c0.1 0.1 0.1 0.2-0.1 0.5q-0.3 0.7-0.9 1.2z"/>
	<path id="Layer" fill-rule="evenodd" class="s1" d="m24.5 18.4c0 0.1 0.3 0 0.3 0.1 0 0.1-0.1 0.1-0.3 0.2v0.2q0.3-0.1 0.6-0.1c0.1 0.1-0.1 0.3-0.6 0.3v0.1c0.3 0 0.6 0.1-0.2 0.2l-0.1 0.1q0.2 0 0.4 0.1c0.1 0.1-0.1 0.1-0.3 0.1h-0.1q0.2 0.2 0.4 0.3c0.2 0.2-0.3 0-0.6 0-0.1 0-0.1 0.1-0.1 0.1q0.4 0.2 0.8 0.5c0.1 0.1 0.1 0.2 0.3 0.3 0.1 0.2 0.4 0.2 0.6 0.3 0.2 0.2 0.3 0.4 0.6 0.6 0.3 0.2 0.7 0.4 1 0.6 0.4 0.3 0.9 0.5 1.3 0.7q0.4 0.2 0.7 0.4 0.2 0.2 0.4 0.3-0.5 0-1 0.1c0.8 0.6 1.7 1 2.7 1.3l0.6 0.3-0.1-0.1v0.1l-0.2-0.1v0.1q-0.1-0.1-0.2-0.1c-0.4-0.1-0.3-0.2-0.6-0.1q-0.1 0 0 0c0.1 0.1 0.3 0.2 0.3 0.2q0 0 0 0.1c0 0-0.1 0-0.1-0.1-0.2-0.1-0.8-0.4-0.8-0.4-0.3-0.2-0.5-0.2-0.7-0.3-0.5-0.3-0.6-0.4-0.7-0.4-0.2 0-0.2 0.1-0.3 0.2 0 0.1 0 0.2 0.4 0.4-0.4-0.1-0.5 0.1-0.7-0.1q-0.3-0.4-0.6-0.9-0.3-0.4-0.6-0.7c-0.1-0.1-0.5 0-0.3 0.2 0.1 0.3 0.6 1 0.6 1.2-0.4-0.5-0.9-1.5-1.2-1.8q-0.5-0.3-1-0.5-0.5-0.1-0.8-0.2-0.5-0.1-1-0.3-0.5-0.3-1-0.7c-0.1 0.2 0.1 0.4 0.1 0.7-0.1-0.1-0.2-0.4-0.3-0.4 0 0.1 0 0.3-0.1 0.4q0-0.2-0.2-0.3 0 0.3 0 0.5-0.1-0.2-0.3-0.4c0 0.2 0 0.4 0.1 0.6-0.1-0.1-0.2-0.3-0.3-0.3 0 0.1 0 0.3 0 0.4-0.1-0.1-0.1-0.3-0.2-0.3-0.1 0.1-0.2 0.2-0.3 0.3q0.1 0.5-0.1 0.9-0.1 0.4 0.1 0.8c-0.1 0-0.4-0.1-0.4-0.1q0 0.3 0.2 0.6c-0.2 0-0.3-0.1-0.4-0.2q-0.1 0.4 0.1 0.7-0.2-0.2-0.3-0.4c-0.1 0.3-0.2 0.7 0 1-0.4 0-0.4-0.2-0.5-0.4q0-0.2-0.2-0.3c0 0.2-0.1 0.6-0.2 0.8-0.1 0.1-0.2 0.2-0.4 0.3-0.1 0.1-0.1 0.3-0.1 0.4q0.2 0.2 0.4 0.5 0.2 0.3 0.2 0.5 0.1 0.3 0.1 0.6c-0.1-0.2-0.1-0.2-0.1-0.3-0.1-0.2-0.1-0.3-0.1-0.3-0.1 0.1-0.5 0-0.5-0.2q-0.1-0.3-0.4-0.6c-0.1 0.2-0.2 0.5-0.5 0.5q-0.3 0-0.5 0.1-0.2 0-0.3 0.1-0.1 0.2-0.1 0.4 0-0.2 0-0.4 0.1-0.1 0.2-0.2c0.1-0.1 0.2-0.3 0.3-0.3q0.1-0.1 0.2-0.2c0.4 0 0.5-0.1 0.5-0.5-0.2-0.1-0.6 0-0.6-0.1-0.1-0.3-0.1-0.4-0.2-0.4q-0.2 0-0.4 0.1-0.1 0.1-0.2 0.2c0-0.3 0.4-0.4 0.6-0.4q0.2 0.1 0.3 0.2c0.1 0.1 0.3 0.2 0.4 0.2q0.2 0.1 0.5 0c0.2-0.1 0.4-0.2 0.5-0.3q0.2-0.3 0.2-0.6c0-0.5 0-0.8 0-1.2 0.1-0.2 0.2-0.5 0.2-0.9q0-0.1 0-0.3c-0.2-0.3-0.6-0.5-0.8-0.4-0.4 0.2-0.6 0.4-0.4 0.8q0.2 0.1 0.4 0.3c0.1 0.1 0.2 0.1 0.3 0.2q0 0.1 0 0.3 0.1 0.1 0.1 0.3-0.1 0.1-0.2 0.2c0.1-0.3 0.1-0.4 0-0.6-0.1 0-0.2 0-0.2-0.1-0.1-0.1-0.1-0.2-0.2-0.2-0.4-0.3-0.4-0.4-0.5-0.5 0 0.2 0 0.2 0 0.4 0 0.1 0.1 0.1 0 0.2q-0.1 0.1 0 0.2c-0.1-0.2-0.2-0.2-0.2-0.3 0-0.3 0-0.3-0.1-0.4q-0.1 0.3-0.2 0.5-0.2 0.1-0.4 0.2-0.1 0.1-0.2 0.2 0 0.1-0.1 0.2c0-0.2 0-0.3 0.2-0.5 0.1 0 0-0.2 0.2-0.4 0 0 0.3-0.1 0.3-0.2 0.1-0.1 0.2-0.2 0.3-0.3-0.1 0-0.2 0-0.4 0.1q-0.1 0-0.2-0.1-0.1 0-0.2-0.1c0-0.1-0.3-0.3-0.5 0.2 0-0.5 0.4-0.5 0.6-0.4q0.2 0.1 0.4 0.1 0.2 0 0.4 0c0.3-0.1 0.4-0.2 0.6-0.4q-0.2 0-0.3-0.1-0.2-0.1-0.2-0.2-0.2-0.2-0.4-0.4-0.1-0.1-0.3-0.3-0.2-0.3-0.3-0.4 0-0.3 0.2-0.6-0.2 0.1-0.4 0.1c0.1-0.1 0.2-0.2 0.3-0.3q-0.3-0.1-0.6-0.1c0.2-0.3 0.8 0.1 1.1 0 0.2-0.2 0.2-0.3 0.3-0.5-0.7 0.1-0.9-0.3-1.3-0.3q0 0.3-0.2 0.4c-0.1 0.1-0.4 0.2-0.5 0.4q-0.1 0.1-0.1 0.2c0-0.2 0.1-0.4 0.2-0.6 0 0 0.2-0.5 0-0.3-0.2 0.4-0.4 0.8-0.4 1.3-0.1 0.3-0.1 0.6 0.2 0.7q-0.3 0-0.5-0.1-0.1 0-0.2-0.2-0.1-0.1-0.2-0.3-0.1-0.3-0.1-0.7c0 0-0.3 0-0.2-0.6q0.1-0.8 0.6-1.4 0.2-0.2 0.4-0.4c0.6-0.5 1.3-0.7 1.8-1 0.2-0.2 0.3-0.3 0.4-0.5q0-0.9-0.4-1.7-0.6-1.1-1.4-2.1-0.5-0.5-0.8-1.1c-0.3-0.4-0.2-0.3-0.2-0.5q0-0.2 0-0.3 0.2 0.3 0.5 0.5 0.2 0 0.3 0c0 0-0.1-0.2-0.2-0.3q-0.2-0.2-0.4-0.4-0.3-0.6-0.3-1.2c0-0.5 0.2-1.1 0.2-1.5 0-0.6 0-1 0-1 0.1-0.3 0.1-0.2 0.2 0q0.1 0.2 0.2 0.4c0.2 0.3 0.3 0.4 0.3 0 0.1-0.7-0.1-1.3-0.1-1.9q0-0.4 0.2-0.8 0.1-1 0.4-1.9 0.4-0.9 0.7-1.9c0.4 0.1 0.5 0.8 0.2 1.8 0.3-0.6 0.5-0.6 0.6-0.7 0.3 0.1 0.2 0.7 0.1 1.3-0.1 0.5-0.3 0.9-0.6 1.3l0.1 0.1c0.2-0.4 0.6-0.8 0.7-0.8 0.2 0 0.4 0.2 0.4 0.3q-0.2 1-0.7 1.9h0.1c0.3-0.4 0.6-1 0.7-1q0.1 0 0.2 0.1 0 0 0.1 0.1 0 0 0 0.1 0 0.1 0 0.1-0.2 0.8-0.6 1.5v0.1q0.3-0.4 0.6-0.6 0.1-0.1 0.2-0.1c0.2 0 0 0.3-0.3 0.7-0.1 0.3-0.4 0.7-0.6 0.9h0.1c0.3-0.2 0.8-0.7 0.9-0.7q0.1 0 0.2 0.1 0 0.1 0 0.2 0 0.2-0.1 0.4c-0.2 0.2-0.5 0.4-0.8 0.7l0.1 0.1c0.4-0.4 0.9-0.8 1-0.7 0.3 0.2 0.2 0.5 0 0.7q-0.2 0.3-0.4 0.6c-0.1 0 0 0 0 0 0.2 0 0.2-0.1 0.5-0.2 0 0 0.1 0 0.2 0.1 0 0.1-0.1 0.2-0.2 0.3 0 0 0.1 0.1 0.1 0.1 0.1-0.1 0.2-0.1 0.2-0.1q0.2 0.1 0.1 0.2 0 0.2-0.1 0.3c0.1 0.1 0.1 0.1 0.1 0.1 0.1-0.1 0.2-0.2 0.2-0.2 0.1 0 0.1 0 0.1 0.1 0.1 0 0 0.2-0.1 0.3q-0.1 0.1-0.1 0.2c0 0 0 0.1 0 0 0.1 0 0.2-0.1 0.3-0.2 0 0 0 0.1 0 0.1 0 0.1-0.1 0.3-0.2 0.5-0.1 0.1 0.3-0.2 0.3-0.1q-0.4 0.4-0.6 0.8c-0.1-0.6-0.6-0.4-0.8 0.3-0.2 0.6-0.4 1.6-0.5 2.6q-0.3 1-0.7 1.9c0.1 0 0.1 0 0.2 0q0.3-0.8 0.6-1.7c0.1-0.9 0.4-3.2 0.9-3.3 0.3-0.1 0 0.9 0.3 0.5q0.3-0.6 0.7-1.1 0.6-0.5 1.2-0.8 0.5-0.3 1-0.5 0.6-0.2 1-0.6c0.2-0.1 0.3-0.1 0.1 0.2-0.1 0.3-0.5 0.9 0 0.8 0.9-0.6 1.3-1.1 2-1.5 0.5-0.3 0.8-0.3 1.3-0.5q0.6-0.3 1.3-0.5c1-0.3 2-0.6 3-0.9 0.3-0.1 0.3 0.3 0.1 0.6-0.4 0.3-1 0.5-1.4 0.6-0.1 0 0 0.2 0 0.2 0.1 0 0.9-0.3 1.2-0.3 0.2 0 0.1 0.2 0 0.4q-0.5 0.6-1.2 0.7-0.6 0.3-1.3 0.4c-0.1 0-0.5 0.1-0.7 0.1 0 0 0 0.1 0 0.1q0.9-0.1 1.8-0.1c0.2 0 0.2 0.1 0.1 0.3q-0.1 0.2-0.4 0.4-0.2 0.2-0.5 0.2c-0.7 0.2-1.6 0.3-2 0.4 0 0.1 0 0.2 0.1 0.2 0.3 0 1.5-0.1 1.6-0.1q0.1 0 0.2 0.1c0 0.1 0.1 0.2 0 0.3 0 0.1-0.1 0.1-0.3 0.2q-0.5 0.2-0.9 0.2c-0.6 0.1-1.2 0.1-1.4 0.1-0.2 0.1-0.1 0.2 0 0.2 0.5 0.1 1.3-0.1 1.6 0 0.2 0 0.3 0.1 0.2 0.1q-0.1 0.2-0.4 0.2-0.4 0.1-0.9 0.1c-0.5 0.1-1 0-1.3 0-0.1 0-0.1 0.2 0 0.2 0.6 0.1 1.5 0.1 1.7 0.2 0.1 0.1 0.1 0.5-0.3 0.5q-0.9 0-1.8-0.1c-0.1 0-0.1 0.2 0 0.2 0.6 0.1 1.8 0.2 1.8 0.3-0.1 0.6-1.1 0.5-1.8 0.4-0.2 0-0.2 0.2 0 0.2q0.4 0 0.8 0.2c0.1 0 0.1 0.2-0.1 0.3q-0.2 0.1-0.5 0.1c-0.2 0-0.2 0.2 0.1 0.1 0.4 0 0.4 0.1 0.4 0.2 0 0.1-0.1 0.1-0.3 0.1-0.2 0-0.1 0.1 0 0.1 0.2 0.1 0.2 0.3 0.1 0.3q-0.2 0-0.4 0.1c-0.2 0-0.2 0.1 0 0.1 0.2 0.1 0.6 0.2-0.2 0.3-0.2 0-0.2 0-0.1 0q0.3 0.1 0.7 0.3c0.3 0.2-0.5 0.2-0.7 0.2 0.1 0.1 0.7 0.3 0.7 0.4q-0.5 0-1 0c0.1 0.1 0.4 0.3 0.6 0.4 0.1 0.2 0 0.2-0.1 0.2q-0.5-0.1-0.9-0.3c0.3 0.4 1 0.9 0.8 1q-0.3-0.3-0.7-0.4l-0.1 0.1c0.3 0.2 0.7 0.5 0.5 0.5-0.2 0-0.7-0.1-0.9-0.1-0.3 0.1 0.3 0.2 0.8 0.2 0.3 0.1 0.5 0.1 0.5 0.1 0.1 0.2-0.6 0.3-0.7 0.3zm-6.7 5.4q0 0 0 0 0 0 0 0zm-2.4-5.1c-0.3 0.2-0.3 0.5-0.2 0.5v0.1c0 0 0.2 0.1 0 0.3-0.2 0.1 0.1-0.1 0.3-0.3l0.1 0.2q0-0.1 0-0.3c0-0.1 0-0.1 0-0.4q0.1-0.4 0.3-0.7-0.2 0.3-0.5 0.6zm-0.5 1.3q0 0 0 0.1 0 0.1 0.1 0.1c0 0 0-0.2 0.1-0.2 0.1 0-0.2-0.1-0.2 0zm13.2-11.2zm-12.2 9.3q0.1 0 0.1 0 0 0-0.1 0z"/>
	<path id="Layer" fill-rule="evenodd" class="s0" d="m15.4 53.8v0.1h-0.1q-0.1 0-0.2 0-0.1 0.1-0.1 0.1-0.2 0.3-0.2 0.5h0.6v0.1h-0.6q0 0.4 0.2 0.8 0.1 0.2 0.4 0.2v0.3q-0.2 0-0.4-0.1-0.1 0-0.3-0.2c-0.2-0.2-0.3-0.4-0.3-0.7 0-0.3 0.1-0.6 0.3-0.8q0.1-0.2 0.3-0.3 0.2 0 0.4 0zm-14.9 1.5l1.3-2.9q0.1 0 0.1 0 0 0 0 0 0 0 0.1 0l1.1 2.9q0 0.1 0.1 0.3 0.1 0.1 0.2 0.1 0.1 0 0.2 0 0.1 0 0 0.1 0 0 0 0 0 0.1 0 0.1 0 0-0.2-0.1-0.2 0-0.4 0-0.2 0-0.4 0.1 0 0 0 0 0 0-0.1 0 0-0.1 0-0.1 0 0 0.1-0.1 0 0 0 0 0.1 0 0.2 0 0-0.1 0-0.2 0 0 0 0 0-0.1-0.1-0.1l-0.2-0.7q0-0.1-0.1-0.1 0 0-0.1 0h-1.1q-0.1 0-0.1 0-0.1 0-0.1 0.1l-0.3 0.6q0 0-0.1 0.1 0 0.1 0 0.1 0 0.1 0.1 0.1 0 0.1 0.1 0.1c0 0 0.1 0 0.1 0q0.1 0.1 0.1 0.1 0 0 0 0 0 0.1 0 0.1 0 0-0.1 0 0 0-0.2 0-0.2-0.1-0.3-0.1-0.1 0-0.2 0.1-0.1 0-0.1 0-0.1 0-0.1-0.1 0 0 0 0c0 0 0-0.1 0.1-0.1q0 0 0 0 0.1 0 0.1 0 0.1-0.1 0.1-0.2 0.1-0.1 0.2-0.2zm0.8-0.9c0 0 1 0 1 0q0-0.1 0-0.1 0 0 0 0v-0.1l-0.5-1.1q0 0 0 0 0 0 0 0 0 0 0 0-0.1 0-0.1 0l-0.5 1.1q0 0.1 0 0.1 0 0 0 0 0 0 0 0 0 0.1 0 0.1c0 0 0 0 0.1 0zm4 1.2q-0.1 0.1-0.3 0.2-0.2 0.1-0.4 0.1-0.2 0-0.3 0-0.2-0.1-0.3-0.3c-0.2-0.2-0.3-0.4-0.2-0.7q0-0.4 0.3-0.8c0.1-0.1 0.2-0.3 0.4-0.3q0.3-0.1 0.6 0 0.1 0.1 0.2 0.2v-1q0.1-0.2 0-0.3 0-0.1-0.1-0.1 0 0-0.1 0c0 0-0.1 0-0.1 0q0 0 0 0 0-0.1 0-0.1 0 0 0.1 0l0.1-0.1q0.1 0 0.1 0 0.1 0 0.2-0.1 0.1 0 0.2 0 0 0 0 0 0 0 0 0v0.1q0 0.3 0 0.7v2.2q0 0.1 0 0.3 0.1 0 0.1 0.1 0 0 0.1 0 0.1 0 0.1 0 0 0 0 0 0 0.1-0.1 0.1-0.1 0-0.1 0-0.1 0.1-0.3 0.1 0 0-0.1 0 0 0 0 0 0 0 0 0c0 0 0-0.3 0-0.3zm0-0.4v-0.8q0-0.1-0.1-0.2 0-0.1-0.1-0.1-0.1-0.1-0.2-0.2-0.2 0-0.3 0-0.1 0-0.3 0-0.1 0.1-0.2 0.2-0.2 0.3-0.1 0.6-0.1 0.4 0.2 0.7 0.1 0.1 0.2 0.2 0.2 0.1 0.3 0.1 0.3 0 0.4-0.1 0.1-0.1 0.1-0.2 0.1-0.1 0.1-0.2zm2.5 0.4q-0.2 0.1-0.4 0.2-0.2 0.1-0.4 0.1-0.1 0-0.3 0-0.2-0.1-0.3-0.3c-0.1-0.2-0.2-0.4-0.2-0.7 0-0.3 0.1-0.6 0.3-0.8q0.2-0.2 0.5-0.3 0.2-0.1 0.5 0 0.2 0.1 0.3 0.2v-1q0-0.2-0.1-0.3 0-0.1 0-0.1-0.1 0-0.1 0c-0.1 0-0.1 0-0.2 0q0 0 0 0 0-0.1 0-0.1 0 0 0.1 0l0.2-0.1q0 0 0.1 0 0.1 0 0.2-0.1 0 0 0.1 0 0 0 0 0 0 0 0 0 0.1 0 0.1 0v0.1q-0.1 0.3-0.1 0.7v2.2q0 0.1 0.1 0.3 0 0 0 0.1 0.1 0 0.1 0h0.1q0 0 0 0 0 0 0 0 0 0.1-0.1 0.1-0.1 0-0.1 0-0.1 0.1-0.2 0.1-0.1 0-0.2 0 0 0 0 0 0 0 0 0c0 0 0-0.3 0-0.3zm0-0.4v-0.8q0-0.1-0.1-0.2 0-0.1 0-0.1-0.1-0.1-0.3-0.2-0.1 0-0.3 0-0.1 0-0.2 0-0.1 0.1-0.2 0.2-0.2 0.3-0.2 0.6 0 0.4 0.2 0.7 0.1 0.1 0.3 0.2 0.1 0.1 0.3 0.1 0.1 0 0.2 0 0.1 0 0.2-0.1 0-0.1 0-0.2 0.1-0.1 0.1-0.2zm2.6 0v-2.1q0-0.1-0.1-0.3 0-0.1-0.1-0.2 0 0-0.1 0 0 0 0 0-0.1 0-0.1 0 0-0.1 0-0.1 0 0 0 0 0 0 0 0 0-0.1 0-0.1 0.1 0 0.2 0.1 0.2 0 0.3 0 0.1 0 0.3 0 0.2-0.1 0.4-0.1 0.4 0 0.8 0.3 0.2 0.1 0.3 0.3 0.1 0.2 0.1 0.4 0 0.2-0.1 0.4-0.1 0.1-0.3 0.3-0.3 0.2-0.7 0.2-0.2 0-0.3 0-0.1 0-0.2-0.1 0 0 0 0 0.1 0 0.1 0 0 0 0.1 0 0.1 0 0.2 0 0.3 0 0.6-0.2 0.1-0.1 0.1-0.2 0.1-0.1 0.1-0.3 0-0.2-0.1-0.3 0-0.2-0.2-0.3c-0.2-0.2-0.5-0.3-0.7-0.3q-0.1 0-0.2 0.1-0.1 0-0.1 0 0 0.1 0 0.1v2.4q0 0.2 0.1 0.4 0 0.1 0.1 0.1 0.1 0 0.2 0.1 0 0 0.1 0 0 0 0 0 0 0.1 0 0.1 0 0-0.1 0-0.1 0-0.3 0-0.2 0-0.3 0-0.2 0-0.4 0c0 0-0.1 0-0.1 0q0 0 0 0 0 0 0 0 0-0.1 0-0.1 0 0 0.1-0.1 0 0 0 0 0.1 0 0.1-0.1 0.1 0 0.1-0.1 0.1-0.2 0.1-0.3zm2.6 0.1c0 0 0-1.1 0-1.1q-0.1-0.1-0.1-0.1 0 0-0.1-0.1 0 0-0.1 0-0.1 0-0.1 0 0 0 0 0 0 0 0 0 0-0.1 0-0.1 0.1 0 0.1 0c0 0 0 0 0.1 0q0.1 0 0.2-0.1 0 0 0.1 0 0.1-0.1 0.1-0.1 0.1 0 0.1 0 0 0 0 0 0 0.1 0 0.1v0.3q0.1-0.1 0.3-0.3 0.1 0 0.2 0 0.1 0 0.2 0 0 0.1 0.1 0.1 0 0.1 0 0.1 0 0.1-0.1 0.1 0 0.1-0.1 0.1 0 0-0.1-0.1-0.1 0-0.2 0 0 0-0.1 0 0 0-0.1 0.1-0.1 0.1-0.1 0.3v0.8q0 0.1 0 0.3 0.1 0 0.1 0.1 0 0 0.1 0 0 0 0 0 0.1 0 0.1 0.1 0.1-0.1 0.1 0 0 0 0 0 0 0 0 0 0 0.1 0 0.1 0 0 0 0-0.1 0-0.2 0-0.2 0-0.3 0-0.2 0-0.4 0-0.1 0-0.1 0 0 0 0-0.1 0 0 0 0 0 0 0 0 0 0 0.1 0 0-0.1 0-0.1 0.1 0 0.1 0 0-0.1 0-0.2 0.1-0.1 0.1-0.2z"/>
	<path id="Layer" fill-rule="evenodd" class="s0" d="m15.4 53.8q0.2 0 0.3 0 0.2 0.1 0.4 0.3 0.1 0.1 0.1 0.2 0 0.1 0 0.2 0 0.1 0 0.1 0 0-0.1 0h-0.7v-0.1h0.1q0.1 0 0.3 0 0 0 0 0 0-0.1 0-0.1 0-0.1 0-0.2-0.1-0.1-0.1-0.2c-0.1 0-0.2-0.1-0.3-0.1zm0 1.9q0.1 0 0.2 0 0.3 0 0.5-0.2 0.1 0 0.1-0.1 0 0 0 0 0 0.1 0 0.1 0.1 0 0.1 0 0 0-0.1 0.1 0 0 0 0.1-0.2 0.1-0.4 0.2-0.2 0.1-0.4 0.1zm1.3 0c0 0 0-0.4 0-0.5q0 0 0 0 0 0 0.1 0 0 0 0 0.1c0 0.1 0 0.1 0 0.1q0.1 0.2 0.2 0.3c0.1 0.1 0.2 0.1 0.3 0.1q0.2 0 0.3-0.1 0.1 0 0.1-0.1 0.1-0.1 0.1-0.2 0-0.2-0.5-0.4 0 0-0.1-0.1-0.2 0-0.4-0.2-0.1-0.2-0.1-0.3 0-0.1 0.1-0.2 0-0.1 0.1-0.2 0.2-0.2 0.5-0.2 0.2 0 0.3 0.1 0.2 0 0.2 0.1v0.3q0 0 0 0 0 0-0.1 0.1 0 0 0-0.1 0-0.1-0.1-0.1 0-0.1-0.2-0.2-0.1-0.1-0.2-0.1-0.1 0-0.2 0.1-0.1 0.1-0.1 0.1 0 0.1 0 0.1 0 0.3 0.5 0.5 0.1 0 0.1 0 0.2 0.1 0.3 0.2 0.1 0.2 0.1 0.4 0 0.1 0 0.3-0.1 0.1-0.2 0.2-0.1 0.1-0.2 0.1-0.2 0.1-0.3 0.1-0.2 0-0.4-0.1-0.1-0.1-0.1-0.1 0 0 0 0 0 0 0 0-0.1 0-0.1 0 0-0.1 0-0.1zm1.8-1.6q-0.1 0-0.1-0.1 0 0 0 0 0 0 0.1-0.1 0.1-0.1 0.2-0.2 0.1-0.1 0.1-0.2 0.1-0.1 0.1-0.1 0.1 0 0.1 0 0 0 0 0c0 0 0 0.4 0 0.5h0.4q0.1 0 0.3-0.1 0 0 0 0 0 0 0 0 0 0.1 0 0.2-0.1 0-0.1 0.1c0 0-0.6 0-0.6 0v1.3q0 0.1 0 0.2 0 0 0.1 0.1 0 0 0.1 0.1 0 0 0.1 0 0.2 0 0.3-0.1 0.1 0 0.1 0 0.1 0 0.1 0 0 0.1-0.2 0.2-0.2 0.1-0.4 0.1-0.1 0-0.2-0.1-0.2 0-0.2-0.1c-0.1-0.1-0.2-0.3-0.2-0.5v-1.2zm1.9-1.2q0.1-0.1 0.2-0.1 0 0 0.1 0.1 0 0 0.1 0 0 0.1 0 0.1 0 0.1 0 0.1-0.1 0.1-0.1 0.1-0.1 0.1-0.1 0.1-0.1 0-0.1 0-0.1-0.1-0.1-0.1 0-0.1-0.1-0.1 0.1-0.1 0.1-0.2zm0 1.6q0-0.2-0.1-0.3 0-0.1 0-0.1-0.1 0-0.1 0-0.1 0-0.1 0 0 0 0-0.1 0 0 0.1 0 0-0.1 0.1-0.1 0 0 0.1 0 0.1-0.1 0.2-0.1 0 0 0.1-0.1 0 0 0.1 0.1 0 0 0 0c0 0.3 0 1.3 0 1.6q0 0.1 0 0.2 0 0.1 0.1 0.1 0 0 0.1 0 0 0.1 0.1 0.1 0 0 0 0 0.1 0 0.1 0 0 0 0 0.1 0 0-0.1 0 0 0 0 0 0 0-0.2 0-0.1 0-0.3 0-0.2 0-0.4 0 0 0 0 0 0 0-0.1 0 0-0.1 0-0.1 0 0 0.1 0 0 0 0-0.1 0 0 0 0 0.1 0 0.1 0 0-0.1 0-0.1 0.1-0.1 0.1-0.2zm1.3 1.4q-0.1-0.1-0.2-0.1 0-0.1 0-0.2 0-0.1 0.1-0.2 0-0.2 0.2-0.3-0.2-0.1-0.3-0.2 0-0.2 0-0.4 0-0.1 0-0.3 0.1-0.1 0.2-0.2 0.1-0.1 0.2-0.2 0.2-0.1 0.3 0 0.3 0 0.5 0.1 0.1 0 0.2 0.1 0.1 0 0.1-0.1 0.1 0 0.2-0.1 0 0 0 0 0-0.1 0-0.1 0 0 0 0 0.1 0 0.1 0 0 0 0 0.1 0 0.1-0.1 0.2c0 0.1-0.1 0.2-0.2 0.2q0 0.1 0 0.2 0.1 0 0.1 0.1 0 0.1-0.1 0.3-0.1 0.1-0.2 0.2-0.2 0.3-0.6 0.2-0.1 0-0.2 0-0.1 0-0.1 0-0.1 0-0.1 0.1-0.1 0.1-0.1 0.2 0 0 0 0.1 0.1 0 0.1 0 0.4 0.1 0.8 0.1c0.1 0 0.3 0 0.4 0.1q0.1 0.1 0.2 0.2 0 0.1 0 0.2 0 0.1-0.1 0.2-0.1 0.2-0.2 0.2-0.3 0.3-0.8 0.2-0.3 0-0.6-0.1-0.1-0.1-0.1-0.2-0.1-0.1-0.1-0.2 0-0.1 0.1-0.2 0.1-0.1 0.3-0.2zm0.2-1q0.1 0.1 0.2 0.2 0.1 0 0.2 0 0.1 0 0.2 0 0.1-0.1 0.1-0.1 0.1-0.2 0.1-0.5 0-0.2-0.1-0.5 0 0-0.1-0.1-0.1 0-0.2 0-0.2 0-0.2 0-0.1 0-0.2 0.1-0.1 0.2-0.1 0.4c0 0.2 0 0.4 0.1 0.5zm-0.1 1q-0.1 0.1-0.2 0.2 0 0.1 0 0.2 0 0.1 0 0.2 0 0 0.1 0.1 0.2 0.1 0.5 0.1 0.3 0 0.6-0.1 0.1-0.1 0.1-0.2 0.1-0.1 0.1-0.2 0 0 0 0-0.1-0.1-0.1-0.1-0.1-0.1-0.2-0.1-0.1 0-0.3 0-0.3 0-0.6-0.1zm2.1-1.2q0-0.1 0-0.1zm0 0q0 0 0 0zm0.2 0.8q0.1 0.1 0.3 0.2 0.1 0 0.3 0 0.3 0 0.5-0.1 0.1-0.1 0.1-0.1 0 0 0.1 0 0 0 0 0.1 0 0 0 0c-0.1 0-0.1 0.1-0.1 0.1q-0.2 0.2-0.4 0.2-0.2 0.1-0.4 0.1-0.2 0-0.4-0.1-0.2 0-0.3-0.2-0.2-0.3-0.2-0.7 0-0.5 0.2-0.8 0.1-0.2 0.3-0.3 0.2 0 0.4 0 0.2 0 0.4 0 0.2 0.1 0.3 0.3 0 0.1 0.1 0.2 0 0.1 0 0.2 0 0.1 0 0.1 0 0-0.1 0h-1.3q0 0.4 0.2 0.8zm-0.2-0.9h0.7q0.1 0 0.3 0 0-0.1 0-0.1 0.1 0 0 0 0-0.1 0-0.2 0-0.1-0.1-0.2-0.2-0.1-0.4-0.1-0.1 0-0.2 0-0.1 0.1-0.1 0.1-0.2 0.2-0.2 0.5zm3.2-0.5q-0.1 0-0.1 0 0-0.1 0.1-0.2 0.1-0.1 0.2-0.2 0.1-0.1 0.2-0.2 0-0.1 0-0.1 0.1 0 0.1 0 0 0 0 0 0 0 0 0.1v0.4h0.4q0.1 0 0.3-0.1 0 0 0 0 0 0 0 0v0.1q0 0.1 0 0.1-0.1 0.1-0.1 0.1-0.1 0-0.1 0h-0.5v1.4q0 0 0 0.1 0 0.1 0.1 0.1 0 0.1 0.1 0.1 0.1 0 0.1 0 0.2 0 0.3-0.1 0.1 0 0.1 0 0 0 0 0 0.1 0 0.1 0-0.1 0.1-0.2 0.2-0.2 0.1-0.4 0.1-0.1 0-0.2 0-0.1-0.1-0.2-0.1-0.2-0.3-0.2-0.5v-1.3zm1.6 0.8q0-0.4 0.3-0.8 0.3-0.3 0.8-0.3 0.2 0 0.4 0.1 0.2 0.1 0.3 0.2 0.2 0.2 0.3 0.4 0 0.2 0 0.4 0 0.2 0 0.4-0.1 0.2-0.3 0.4-0.1 0.1-0.3 0.2-0.3 0.1-0.5 0.1-0.2 0-0.4-0.1-0.2 0-0.3-0.2-0.2-0.1-0.2-0.3-0.1-0.3-0.1-0.5zm0.5 0.7q0.1 0.1 0.3 0.2 0.1 0.1 0.3 0.1 0.1 0 0.3-0.1 0.1 0 0.2-0.1 0.2-0.3 0.2-0.7c0-0.2-0.1-0.5-0.2-0.8q-0.1-0.1-0.3-0.2-0.1-0.1-0.3-0.1-0.1 0-0.3 0.1-0.1 0.1-0.2 0.2-0.2 0.2-0.2 0.6c0 0.3 0.1 0.6 0.2 0.8zm-8.8-2.5zm1.5 1.4zm7.1 0.3z"/>
	<path id="Layer" fill-rule="evenodd" class="s0" d="m32.3 54.1q0 0-0.1-0.1 0 0-0.1-0.1-0.1 0-0.1 0 0-0.1 0-0.1 0.1 0 0.1 0 0.1 0 0.2 0 0.1 0 0.2 0 0.1 0 0.2 0 0.1 0 0.2 0 0 0 0 0 0 0 0 0 0 0 0 0.1 0 0 0 0-0.1 0-0.1 0 0 0-0.1 0.1 0 0 0 0 0 0.1 0 0.1 0 0 0 0.1 0 0 0 0.1l0.5 1.1q0 0 0 0 0 0 0 0 0 0 0 0l0.4-0.8q0-0.1 0-0.3 0-0.1 0-0.2 0 0 0-0.1 0 0-0.1-0.1 0 0 0 0-0.1 0-0.1 0 0 0 0-0.1 0 0 0 0 0 0 0.1 0 0 0 0.1 0 0 0 0.1 0 0.1 0 0.2 0 0.1 0 0.1 0 0.1 0 0.1 0 0 0.1 0 0.1 0 0 0 0 0 0-0.1 0 0 0 0 0.1-0.1 0-0.1 0 0 0.1-0.1 0.2l-0.9 2.5q0 0.1 0 0.1 0 0 0 0-0.1 0-0.2 0-0.1 0-0.1 0 0 0 0 0 0 0 0-0.1 0 0 0-0.1 0.1-0.1 0.2-0.1 0.1-0.2 0.2-0.3 0-0.2 0-0.3 0-0.1-0.1-0.3 0 0 0 0zm2 0.7q0-0.4 0.3-0.8c0.2-0.2 0.5-0.3 0.8-0.3q0.2 0 0.4 0.1 0.2 0 0.3 0.2 0.2 0.2 0.3 0.4 0 0.1 0 0.4 0 0.2 0 0.4-0.1 0.2-0.3 0.4-0.1 0.1-0.3 0.2-0.2 0.1-0.4 0.1-0.3 0-0.5-0.1-0.1-0.1-0.3-0.2-0.2-0.2-0.2-0.4-0.1-0.2-0.1-0.4zm0.5 0.7q0.1 0.1 0.3 0.2 0.1 0.1 0.3 0.1 0.1 0 0.3-0.1 0.1 0 0.2-0.2 0.2-0.2 0.2-0.6 0-0.4-0.2-0.8-0.1-0.1-0.3-0.2-0.1-0.1-0.3-0.1-0.1 0-0.2 0-0.2 0.1-0.3 0.2-0.2 0.3-0.2 0.7c0 0.2 0.1 0.5 0.2 0.8zm3.6 0q-0.2 0.2-0.3 0.3-0.2 0-0.4 0-0.2 0.1-0.3 0-0.1-0.1-0.2-0.2c-0.1-0.1-0.2-0.3-0.2-0.5v-0.9q0-0.1 0-0.2 0 0-0.1-0.1 0 0-0.1 0 0 0 0 0 0-0.1 0.1-0.1 0.2 0 0.4 0 0.1 0 0.1 0 0 0 0 0c0 0.2 0 0.4 0 0.5v0.7q0 0.3 0.1 0.5 0.1 0.1 0.2 0.1 0.1 0.1 0.2 0.1 0.2 0 0.4-0.2 0 0 0.1-0.1 0-0.1 0-0.2v-1q0-0.1 0-0.2 0 0 0 0-0.1 0-0.1 0 0-0.1-0.1-0.1-0.1 0-0.1 0 0 0 0-0.1 0 0 0.1 0 0 0 0.1 0 0.1 0 0.2 0 0.2-0.1 0.2 0 0 0 0 0 0 0 0 0 0 0 0 0c0 0.1 0 0.3 0 0.3v1.3q0 0.1 0.1 0.2 0 0 0 0.1 0.1 0 0.1 0 0.1 0 0.1 0 0 0.1 0 0.1 0 0-0.1 0h-0.4q-0.1 0-0.1 0 0-0.1 0-0.1zm1.2-0.3c0 0 0-1.1 0-1.1q0-0.1 0-0.1-0.1 0-0.1-0.1-0.1 0-0.1 0-0.1 0-0.1 0 0 0 0 0 0 0 0 0 0-0.1 0-0.1 0 0 0.1 0c0 0 0 0 0 0q0.1 0 0.2-0.1 0.1 0 0.2-0.1 0 0 0.1 0 0 0 0 0 0.1 0 0.1 0 0 0.1 0 0.1v0.4q0.1-0.2 0.3-0.4 0 0 0.2 0 0.1 0 0.2 0 0 0.1 0.1 0.1 0 0.1 0 0.1 0 0.1-0.1 0.1 0 0.1-0.1 0.1 0 0-0.1 0-0.1-0.1-0.2-0.1-0.1 0-0.1 0-0.1 0.1-0.1 0.1-0.1 0.1-0.1 0.3v0.7q0 0.2 0 0.4 0 0 0.1 0.1 0 0 0.1 0 0 0 0 0c0 0 0.1 0.1 0.1 0.1q0-0.1 0.1 0 0 0 0 0 0 0 0 0 0 0.1 0 0.1 0 0-0.1 0 0 0-0.1 0-0.2 0-0.3 0-0.3 0-0.4 0h-0.1q0 0 0 0 0 0 0-0.1 0 0 0 0 0 0 0 0 0 0 0 0 0.1-0.1 0.1-0.1 0 0 0 0 0.1-0.1 0.1-0.2 0-0.1 0-0.2zm2.9 0v-2.3q0-0.2 0-0.4 0 0-0.1 0 0 0-0.1 0-0.1 0-0.1 0 0-0.1 0-0.1 0 0 0.1-0.1 0.1 0 0.1 0 0.1 0 0.1 0 0.1-0.1 0.2-0.1 0.1-0.1 0.1-0.1 0.1 0 0.1 0 0 0.1 0 0.1v0.1q0 0.3 0 0.7v2.2q0 0.1 0 0.3 0.1 0.1 0.1 0.1 0.1 0 0.2 0 0 0 0 0.1 0.1 0 0.1 0 0 0 0 0-0.1 0-0.1 0 0 0.1 0 0.1-0.1 0-0.2 0-0.1-0.1-0.2-0.1-0.2 0-0.4 0.1h-0.1q0 0 0-0.1 0 0 0 0 0 0 0 0 0 0 0 0 0 0 0 0 0-0.1 0.1-0.1 0 0 0 0 0 0 0.1-0.1 0 0 0-0.1 0-0.1 0-0.2zm1.3-2.3q0-0.1 0.1-0.2 0-0.1 0.1-0.1 0 0 0.1 0.1 0.1 0.1 0.1 0.1 0 0 0 0.1 0 0 0 0.1 0 0-0.1 0c0 0.1-0.1 0.1-0.1 0.1q-0.1 0-0.1 0 0 0-0.1-0.1 0 0 0 0 0-0.1 0-0.1zm0 1.4q0-0.1 0-0.3-0.1 0-0.1-0.1 0 0-0.1 0 0 0-0.1 0 0 0 0 0 0-0.1 0.1-0.1 0 0 0.1 0 0.1 0 0.1-0.1c0.1 0 0.1 0 0.2-0.1q0.1 0 0.1 0 0.1 0 0.1 0 0 0 0 0.1 0 0.4 0 0.7v0.8q0 0.1 0 0.3 0.1 0.1 0.1 0.1 0.1 0 0.1 0 0 0 0.1 0 0 0 0.1 0 0 0.1 0 0.1 0 0 0 0 0 0 0 0-0.1 0.1-0.1 0.1 0 0-0.2-0.1-0.1 0-0.3 0-0.2 0-0.3 0.1h-0.1q0 0 0-0.1 0 0 0 0 0 0 0 0 0 0 0 0 0-0.1 0-0.1 0 0 0 0c0.1 0 0.1-0.1 0.1-0.1q0.1 0 0.1-0.1 0-0.1 0-0.2zm1.2 0.9v-1.3h-0.2q0 0 0 0-0.1 0-0.1 0 0-0.1 0.1-0.2 0 0 0 0 0 0 0.1 0h0.2q0-0.6 0.3-1.1 0.1-0.2 0.3-0.3 0.2-0.1 0.5-0.2 0 0 0.1 0.1 0 0 0 0.1 0 0.1 0 0.2c0 0.1 0 0.1-0.1 0.1q0 0 0-0.1 0 0 0 0 0-0.1-0.1-0.1-0.1 0-0.2 0-0.1 0-0.2 0.1-0.1 0-0.1 0.2-0.2 0.2-0.2 0.6v0.4h0.2q0.2 0 0.3 0 0-0.1 0-0.1 0.1 0 0.1 0 0 0 0 0 0 0.1-0.1 0.2 0 0 0 0.1 0 0-0.1 0h-0.4v1.3q0 0.1 0.1 0.3 0 0 0.1 0.1 0 0 0 0 0 0 0.1 0c0 0 0 0.1 0 0.1q0 0 0 0 0 0 0 0 0 0 0 0 0 0-0.1 0-0.2 0-0.3 0-0.2 0-0.4 0-0.1 0.1-0.1 0 0 0 0 0 0 0 0 0 0 0 0 0 0.1-0.1 0.1-0.1 0.1 0 0.1-0.1 0 0 0-0.1 0.1-0.1 0-0.2zm1.5-0.7q0 0.4 0.2 0.7 0.1 0.2 0.3 0.3 0.1 0 0.3 0c0.2 0 0.4 0 0.6-0.2q0 0 0.1 0 0 0 0 0 0 0 0 0 0 0.1 0 0.1 0 0-0.1 0.1-0.2 0.1-0.4 0.2-0.2 0.1-0.4 0.1-0.2 0-0.4-0.1-0.1-0.1-0.3-0.2c-0.2-0.2-0.2-0.5-0.2-0.7 0-0.3 0-0.6 0.2-0.8q0.2-0.2 0.3-0.3 0.2-0.1 0.4-0.1 0.2 0 0.4 0.1 0.1 0.1 0.3 0.3 0.1 0.1 0.1 0.2 0.1 0.1 0.1 0.2 0 0-0.1 0.1 0 0-0.1 0zm0.7-0.1q0.1 0 0.3-0.1 0 0 0 0 0 0 0 0 0-0.1 0-0.2-0.1-0.1-0.1-0.2-0.2-0.1-0.4-0.1-0.1 0-0.2 0-0.1 0.1-0.1 0.1c-0.1 0.2-0.2 0.3-0.2 0.5zm-12.6 0.2z"/>
</svg>